<svg width="612" height="612" xmlns="http://www.w3.org/2000/svg">

 <g>
  <title>background</title>
  <rect fill="none" id="canvas_background" height="402" width="582" y="-1" x="-1"/>
 </g>
 <g>
  <title>Layer 1</title>
  <g id="svg_1">
   <path id="svg_2" d="m612,510c0,56.1 -45.9,102 -102,102l-408,0c-56.1,0 -102,-45.9 -102,-102l0,-408c0,-56.1 45.9,-102 102,-102l408,0c56.1,0 102,45.9 102,102l0,408z" fill="#563D7C"/>
   <path id="svg_3" d="m166.3,133l173.5,0c32,0 57.7,7.3 77,22s29,36.8 29,66.5c0,18 -4.4,33.4 -13.2,46.2c-8.8,12.8 -21.4,22.8 -37.8,29.8l0,1c22,4.7 38.7,15.1 50,31.2c11.3,16.2 17,36.4 17,60.8c0,14 -2.5,27.1 -7.5,39.2c-5,12.2 -12.8,22.7 -23.5,31.5s-24.3,15.8 -41,21s-36.5,7.8 -59.5,7.8l-164,0l0,-357zm62.5,149.5l102,0c15,0 27.5,-4.2 37.5,-12.8s15,-20.8 15,-36.8c0,-18 -4.5,-30.7 -13.5,-38s-22,-11 -39,-11l-102,0l0,98.6zm0,156.5l110.5,0c19,0 33.8,-4.9 44.2,-14.8c10.5,-9.8 15.8,-23.8 15.8,-41.8c0,-17.7 -5.2,-31.2 -15.8,-40.8s-25.2,-14.2 -44.2,-14.2l-110.5,0l0,111.6z" fill="#FFF"/>
  </g>
  <path id="svg_4" d="m233.5,160.85" opacity="0.5" fill-opacity="null" stroke-opacity="null" stroke-width="0" stroke="#000" fill="#CE7975"/>
  <path d="m281.5,148.850006c0,0 -5.034058,-0.689758 -12,0c-10.148407,1.004898 -24.887802,6.498138 -55,8c-19.975174,0.996277 -34,0 -40,0c-1,0 -1.871368,0.223907 0,-1c6.536438,-4.274933 21.900909,-12.350143 39,-17c15.91449,-4.327713 29,-7 30,-7c1,0 -0.020416,-0.201065 -1,0c-7.460236,1.531265 -18,8 -29,12l-8,4l-4,2l0,1" id="svg_5" fill-opacity="null" stroke-opacity="null" stroke-width="0" stroke="#000" fill="none"/>
  <path d="m199.5,156.850006c0,1 0,3 0,4c0,3 -0.476318,7.394623 -3,14c-2.573654,6.736191 -9.333115,16.46257 -12,25c-2.108368,6.749435 -3,12 -2,12c1,0 2,-4 6,-14l7,-15l4,-15" id="svg_6" fill-opacity="null" stroke-opacity="null" stroke-width="0" stroke="#000" fill="none"/>
  <rect id="svg_7" height="243" width="428" y="81.85" x="76.5" stroke-width="0" fill="#563D7C"/>
  <rect id="svg_8" height="206" width="439" y="309.85" x="55.5" stroke-width="0" fill="#563D7C"/>
  <text stroke="#ffffff" transform="matrix(20.12557878051016,0,0,13.473424999867918,-5365.4263333644885,-3984.8974161381734) " xml:space="preserve" text-anchor="start" font-family="Helvetica, Arial, sans-serif" font-size="24" id="svg_9" y="325.766475" x="273.065898" stroke-width="0" fill="#ffffff">H</text>
 </g>
</svg>